<?xml version="1.0" encoding="utf-8"?>
<!-- Generator: Adobe Illustrator 17.1.0, SVG Export Plug-In . SVG Version: 6.00 Build 0)  -->
<!DOCTYPE svg PUBLIC "-//W3C//DTD SVG 1.1//EN" "http://www.w3.org/Graphics/SVG/1.1/DTD/svg11.dtd">
<svg version="1.1" id="Layer_1" xmlns="http://www.w3.org/2000/svg" xmlns:xlink="http://www.w3.org/1999/xlink" x="0px" y="0px"
	 viewBox="0 0 32.3 27.7" style="enable-background:new 0 0 32.3 27.7;" xml:space="preserve">
<style type="text/css">
	.st0{fill:#ffffff;}
</style>
<g>
	<path class="st0" d="M30.6,12.4c0.3-0.7,0.5-1.5,0.5-2.3c0-3.5-3.2-6.4-7.2-6.4c-0.2,0-0.3,0-0.5,0c-1.9-2.3-4.8-3.7-8-3.7
		c-3.8,0-7.1,2-9,5.1c0,0-0.1,0-0.1,0C2.9,5,0,7.9,0,11.5c0,1.9,0.8,3.5,2.1,4.7c-0.5,0.9-0.8,2-0.8,3.2c0,1,0.3,2,0.7,2.9
		c1.1,2.8,3.9,4.9,7.2,4.9c1.5,0,2.9-0.4,4-1.2c1.1,1.1,2.7,1.7,4.4,1.7c2.6,0,4.7-1.5,5.8-3.7c0.6,0.2,1.1,0.2,1.7,0.2
		c3.2,0,5.9-2.4,6.3-5.5c0.6-0.8,1-1.8,1-2.8C32.3,14.5,31.7,13.2,30.6,12.4z M16.1,23c-1,0-1.9-0.9-1.9-1.9c0-1,0.9-1.9,1.9-1.9
		c1,0,1.9,0.9,1.9,1.9C18,22.1,17.2,23,16.1,23z M17.9,15.7c-0.6,0.8-0.4,2-1.9,2c-1,0-1.5-0.8-1.5-1.6c0-2.8,4.1-3.4,4.1-5.7
		c0-1.3-0.8-2-2.2-2c-3,0-1.8,3.1-4.1,3.1c-0.8,0-1.5-0.5-1.5-1.4c0-2.3,2.6-4.3,5.4-4.3c3,0,5.9,1.4,5.9,4.7
		C22.1,13.4,18.7,14.6,17.9,15.7z"/>
</g>
</svg>
