<?xml version="1.0" encoding="utf-8"?>
<!-- Generator: Adobe Illustrator 17.1.0, SVG Export Plug-In . SVG Version: 6.00 Build 0)  -->
<!DOCTYPE svg PUBLIC "-//W3C//DTD SVG 1.1//EN" "http://www.w3.org/Graphics/SVG/1.1/DTD/svg11.dtd">
<svg version="1.1" id="Layer_1" xmlns="http://www.w3.org/2000/svg" xmlns:xlink="http://www.w3.org/1999/xlink" x="0px" y="0px" preserveAspectRatio="xMinYMid" width="262" height="339"
	 viewBox="0 0 242 319" style="enable-background:new 0 0 129.3 172.1;" xml:space="preserve">
<style type="text/css">
	.st0{fill:#FFFFFF;}
</style>
<g>
	<g>
		<g>
			<path class="st0" d="M48.7,5.7c-0.2,27.4-9.3,54.1-9.5,81.4c-0.1,7.5,12.8,5.3,13.7-0.9c0.6-4.2,1.1-8.4,1.5-12.7
				c0.3-2.8,0.6-5.7,1.4-8.5c1-3.4,3.6-5.4,6.3-7.5c6.1-4.8,10.9-10.5,16.1-16.2c5.5-6.2,10.2-13.1,13.6-20.6
				c3.2-7.2-10.4-7.6-13-1.8c-3.5,7.8-8.5,14.3-14.3,20.6c-2.6,2.8-4.9,6-7.8,8.5c-3.2,2.8-6.6,5.2-9.6,8.1
				c-7.7,7.4-6.4,21.1-7.9,30.9c4.6-0.3,9.2-0.6,13.7-0.9c0.2-27.4,9.3-54.1,9.5-81.4C62.5-2.6,48.7-0.8,48.7,5.7L48.7,5.7z"/>
		</g>
	</g>
	<g>
		<g>
			<path class="st0" d="M42.2,61.1c-14.4,2.1-29.7,5.2-39.3,17.1C-0.7,82.6,0,89,0.2,94.3c0.3,7.6-0.1,15.1,0.8,22.7
				c0.8,6.6,2.6,13.8,7.3,18.9c4.7,5,10.9,7.4,17.4,9.1c15.8,4.1,31.7,0.7,47.7,1.6c-1-0.2-2.1-0.5-3.1-0.7c0.4,0.2,0.9,0.4,1.3,0.5
				c-0.2-0.6-0.3-1.2-0.5-1.7c-1.9,8.3-3.8,16.6-5.6,24.9c-0.5,2.2,1.9,2.4,3.6,2.4c16.2,0.7,27.3-11.1,37.3-22
				c5.2-5.6,10.1-10.6,13.7-17.4c4.5-8.5,7.3-17.8,8.8-27.4c1.3-9,0.5-18.1-2.9-26.5c-3.7-9.1-10.2-13.7-19.4-16.3
				c-20-5.8-45-10.1-63.8,1.5c-3.5,2.1-2.8,4.5,1.2,4.6c5,0.2,10.7-1.4,15-4c-3.3,2-5,0.9-1.1,1c1.7,0,3.4,0.2,5,0.3
				c3.5,0.2,7,0.5,10.4,1.1c7.2,1.2,15.4,2.9,22,6.2c12.5,6.3,13.6,26.1,12.1,38c-1.7,13.4-7.8,28.1-17.4,37.6
				c-3.2,3.1-6.1,6.5-9.2,9.7c-1.6,1.7-3.3,3.3-5.1,4.9c-0.8,0.7-1.7,1.4-2.5,2.1c-0.3,0.2-0.6,0.4-0.9,0.6
				c3.2-1.6,6.6-2.4,10.4-2.5c1.2,0.8,2.4,1.6,3.6,2.4c1.9-8.3,3.8-16.6,5.6-24.9c0.4-0.7,0.2-1.3-0.5-1.7c-5.4-2.2-11.7-1.2-17.5-1
				c-6.7,0.3-13.3,0.6-20,0.2c-12.6-0.6-25-4.6-29.7-17.3c-4.2-11.4-2.7-24.7-3.1-36.6c-0.2-5.6,1.3-8.7,5.1-12.6
				c2.3-2.3,8.1-2.5,11.8-3c3.5-0.5,10.6-2.2,12.5-5.8C52.4,59.7,43.1,61,42.2,61.1L42.2,61.1z"/>
		</g>
	</g>
</g>
</svg>
