<?xml version="1.0" encoding="utf-8"?>
<!-- Generator: Adobe Illustrator 17.1.0, SVG Export Plug-In . SVG Version: 6.00 Build 0)  -->
<!DOCTYPE svg PUBLIC "-//W3C//DTD SVG 1.1//EN" "http://www.w3.org/Graphics/SVG/1.1/DTD/svg11.dtd">
<svg version="1.1" id="Layer_1" xmlns="http://www.w3.org/2000/svg" xmlns:xlink="http://www.w3.org/1999/xlink" x="0px" y="0px"
	 viewBox="0 0 71.3 52.4" enable-background="new 0 0 71.3 52.4" xml:space="preserve">
<g>
	<g>
		<path fill="#4C555E" d="M32.7,47.9H17.8c-1.2,0-2.3,1-2.3,2.3c0,1.2,1,2.3,2.3,2.3h35.7c1.2,0,2.3-1,2.3-2.3c0-1.2-1-2.3-2.3-2.3
			H38.6"/>
		<path fill="#4C555E" d="M67.9,0H3.3C1.5,0,0,1.5,0,3.3v39c0,1.8,1.5,3.3,3.3,3.3h64.6c1.8,0,3.3-1.5,3.3-3.3v-39
			C71.3,1.5,69.8,0,67.9,0z M61.9,43.1c-0.5,0-0.9-0.4-0.9-0.9c0-0.5,0.4-0.9,0.9-0.9c0.5,0,0.9,0.4,0.9,0.9
			C62.8,42.7,62.4,43.1,61.9,43.1z M63.9,38.8H7.3V6.9h56.6V38.8z"/>
	</g>
	<rect x="7.3" y="12.8" fill="none" width="56.6" height="26"/>
	<text transform="matrix(1.1 0 0 1 32.2858 31.236)" fill="#4C555E" font-family="'HoeflerText-BlackItalic'" font-size="26">i</text>
</g>
</svg>
