<?xml version="1.0" encoding="utf-8"?>
<!-- Generator: Adobe Illustrator 17.1.0, SVG Export Plug-In . SVG Version: 6.00 Build 0)  -->
<!DOCTYPE svg PUBLIC "-//W3C//DTD SVG 1.1//EN" "http://www.w3.org/Graphics/SVG/1.1/DTD/svg11.dtd">
<svg x="0px" y="0px" viewBox="0 0 45.2 39.1" xmlns="http://www.w3.org/2000/svg" xmlns:xlink="http://www.w3.org/1999/xlink" style="enable-background:new 0 0 45.2 39.1;" width="27" height="23">
    <style type="text/css">
    .st0 {
        fill: #ffffff;
    }

    .st1 {
        fill: none;
        stroke: #ffffff;
        stroke-width: 3;
        stroke-miterlimit: 10;
    }
    </style>
    <path class="st0" d="M38.3,30.2c-2.1-1.8-11.3-3.9-11.3-6c0-1.8,2-2.8,2.3-6.2c0.7,0,1.6-1.6,1.8-3.1c0.2-1.4-0.4-2.1-1-2.3
                                            c0.2-3.7-1-8-7.5-8c-6.5,0-7.7,4.3-7.5,8c-0.6,0.1-1.2,0.8-1,2.3c0.2,1.4,1.1,3.1,1.8,3.1c0.3,3.4,2.3,4.4,2.3,6.2
                                            c0,2.1-9.1,4.2-11.3,6c0,0,0,0,0,0c-0.6,0.6-0.9,1.3-0.9,2.2c0,0.4,0.7,5.2,1.7,5.2h29.8c1,0,1.7-4.8,1.7-5.2
                                            C39.2,31.5,38.8,30.7,38.3,30.2C38.3,30.2,38.3,30.2,38.3,30.2z"></path>
    <path class="st1" d="M43.7,22.6c0,5.8-2.4,11.1-6.2,14.9H7.7c-3.8-3.8-6-9.1-6.2-14.9C1.1,11.9,10.6,2.3,22.6,1.5
                                            C34.3,0.8,43.7,11,43.7,22.6z"></path>
</svg>
