<?xml version="1.0" encoding="utf-8"?>
<!DOCTYPE svg PUBLIC "-//W3C//DTD SVG 1.1//EN" "http://www.w3.org/Graphics/SVG/1.1/DTD/svg11.dtd">
<svg x="0px" y="0px" viewBox="0 0 42.6 33" xmlns="http://www.w3.org/2000/svg" style="enable-background:new 0 0 42.6 33;" xml:space="preserve" width="24" height="18">
    <style type="text/css">
  .st0 {
  fill: #ffffff;
  }
    </style>
  <path class="st0" d="M32.2,25.6c-2.1-1.8-11.3-3.9-11.3-6c0-1.8,2-2.8,2.3-6.2c0.7,0,1.6-1.6,1.8-3.1c0.2-1.4-0.4-2.1-1-2.3
                                            c0.2-3.7-1-8-7.5-8C10.1,0,8.9,4.3,9,8c-0.6,0.1-1.2,0.8-1,2.3c0.2,1.4,1.1,3.1,1.8,3.1c0.3,3.4,2.3,4.4,2.3,6.2
                                            c0,2.1-9.1,4.2-11.3,6c0,0,0,0,0,0C0.3,26.1,0,26.9,0,27.8C0,28.1,0.7,33,1.7,33h29.8c1,0,1.7-4.8,1.7-5.2
                                            C33.1,26.9,32.8,26.1,32.2,25.6C32.2,25.6,32.2,25.6,32.2,25.6z"></path>
    <path class="st0" d="M37.8,13.1V9.8h3.4c0.8,0,1.5-0.7,1.5-1.5c0-0.8-0.7-1.5-1.5-1.5h-3.4V3.4c0-0.8-0.7-1.5-1.5-1.5
                                            c-0.8,0-1.5,0.7-1.5,1.5v3.4h-3.4c-0.8,0-1.5,0.7-1.5,1.5c0,0.8,0.7,1.5,1.5,1.5h3.4v3.4c0,0.8,0.7,1.5,1.5,1.5
                                            C37.1,14.6,37.8,14,37.8,13.1z"></path>
</svg>
