<?xml version="1.0" encoding="utf-8"?>
<!-- Generator: Adobe Illustrator 17.1.0, SVG Export Plug-In . SVG Version: 6.00 Build 0)  -->
<!DOCTYPE svg PUBLIC "-//W3C//DTD SVG 1.1//EN" "http://www.w3.org/Graphics/SVG/1.1/DTD/svg11.dtd">
<svg version="1.1" id="Layer_1" xmlns="http://www.w3.org/2000/svg" xmlns:xlink="http://www.w3.org/1999/xlink" x="0px" y="0px"
	 viewBox="0 0 37.8 38.5" style="enable-background:new 0 0 37.8 38.5;" xml:space="preserve">
<style type="text/css">
	.st0{fill:#4D525A;}
</style>
<path class="st0" d="M35.5,5.8h-2.2V3.7c0-2-1.6-3.7-3.7-3.7h-26C1.6,0,0,1.7,0,3.7v16.6c0,2,1.6,3.7,3.7,3.7h1.2v8.9
	c0,2,1.1,2.5,1.9,2.5c0.7,0,1.2-0.3,1.8-1l6.3-7.2h7l9.5,10.8c0.8,1,1.5,0.7,1.5-0.6V27.1h2.6c1.3,0,2.3-1,2.3-2.3V8.1
	C37.8,6.8,36.8,5.8,35.5,5.8z M7.5,31.6v-9c0-0.7-0.6-1.3-1.3-1.3H3.6c-0.5,0-1-0.4-1-1V3.6c0-0.5,0.4-1,1-1h26.2c0.5,0,1,0.4,1,1
	v16.7c0,0.5-0.4,1-1,1H17.2c-0.4,0-0.8,0.2-1,0.5L7.5,31.6z M10.9,12c0,1.2-1,2.2-2.3,2.2c-1.2,0-2.3-1-2.3-2.2c0-1.2,1-2.3,2.3-2.3
	C9.9,9.7,10.9,10.8,10.9,12z M16.6,14.3c-1.2,0-2.3-1-2.3-2.2c0-1.2,1-2.3,2.3-2.3c1.2,0,2.3,1,2.3,2.3
	C18.9,13.3,17.9,14.3,16.6,14.3z M22,12c0-1.2,1-2.3,2.2-2.3c1.3,0,2.3,1,2.3,2.3c0,1.2-1,2.2-2.3,2.2C23,14.3,22,13.3,22,12z"/>
</svg>
