<?xml version="1.0" encoding="utf-8"?>
<!-- Generator: Adobe Illustrator 17.1.0, SVG Export Plug-In . SVG Version: 6.00 Build 0)  -->
<!DOCTYPE svg PUBLIC "-//W3C//DTD SVG 1.1//EN" "http://www.w3.org/Graphics/SVG/1.1/DTD/svg11.dtd">
<svg version="1.1" id="Layer_1" xmlns="http://www.w3.org/2000/svg" xmlns:xlink="http://www.w3.org/1999/xlink" x="0px" y="0px"
	 viewBox="0 0 127 133.4" enable-background="new 0 0 127 133.4" xml:space="preserve">
<path opacity="0.2" fill="#FFFFFF" d="M99.2,122.4c29-19.7,36.5-59.2,16.8-88.2l-15.4,10.5c13.9,20.5,8.6,48.4-11.9,62.4
	s-48.4,8.6-62.4-11.9s-8.6-48.4,11.9-62.4c7.8-5.3,16.6-7.8,25.4-7.8l0.1-18.6c-12.4-0.1-24.9,3.5-35.9,11
	C-1.2,37.1-8.7,76.6,11,105.6S70.2,142.1,99.2,122.4z"/>
<path fill="#FFFFFF" d="M63.7,6.4L63.7,25c15.4,0,28.9,7.8,37,19.6L116,34.1C104.6,17.4,85.5,6.4,63.7,6.4z"/>
<path fill="#FFFFFF" d="M18.5,3.4l4-3.3c0.2-0.1,0.4,0,0.4,0.2l0.9,5.1l0.9,5.3c0,0.1-0.1,0.2-0.2,0.1l-5.1-1.9l-4.9-1.8
	c-0.2-0.1-0.2-0.3-0.1-0.4L18.5,3.4z"/>
<rect x="63.3" y="5" fill="#FFFFFF" width="2.9" height="21.4"/>
<path fill="#FFFFFF" d="M127,69.5c0.1-35.1-28.3-63.6-63.4-63.6l0,18.6c24.8,0,44.9,20.2,44.8,45s-20.2,44.9-45,44.8
	c-24.8,0-44.9-20.2-44.8-45c0-9.4,2.9-18.1,7.9-25.3L11.2,33.4C4.2,43.6,0,55.9,0,69.2c-0.1,35.1,28.3,63.6,63.4,63.6
	S126.9,104.5,127,69.5z"/>
<path fill="#FFFFFF" d="M32.1,23.6l2.6,20c0.3,2.7-2.6,4.5-4.9,3L7.7,31.9c-2.2-1.5-1.7-5,0.9-5.6L28.2,21
	C30,20.5,31.9,21.8,32.1,23.6z"/>
</svg>
