<?xml version="1.0" encoding="utf-8"?>
<!-- Generator: Adobe Illustrator 17.1.0, SVG Export Plug-In . SVG Version: 6.00 Build 0)  -->
<!DOCTYPE svg PUBLIC "-//W3C//DTD SVG 1.1//EN" "http://www.w3.org/Graphics/SVG/1.1/DTD/svg11.dtd">
<svg version="1.1" id="Layer_1" xmlns="http://www.w3.org/2000/svg" xmlns:xlink="http://www.w3.org/1999/xlink" x="0px" y="0px"
	 viewBox="0 0 34.9 31.3" style="enable-background:new 0 0 34.9 31.3;" xml:space="preserve">
<style type="text/css">
	.st0{fill:#4D525A;}
</style>
<path class="st0" d="M25,20c-1.7,0-3.1,0.7-4.2,1.8L13,18.2c0.1-0.5,0.2-1,0.2-1.6c0-0.6-0.1-1.1-0.2-1.6l12-5.6
	c1,1.1,2.5,1.8,4.2,1.8c3.1,0,5.7-2.5,5.7-5.7c0-3.1-2.5-5.7-5.7-5.7c-3.1,0-5.7,2.5-5.7,5.7c0,0.1,0,0.3,0,0.4l-12.4,5.7
	C10,10.7,8.4,10,6.6,10C3,10,0,13,0,16.7c0,3.7,3,6.6,6.6,6.6c1.8,0,3.3-0.7,4.5-1.8l8.2,3.8c0,0.1,0,0.3,0,0.4
	c0,3.1,2.5,5.7,5.7,5.7c3.1,0,5.7-2.5,5.7-5.7C30.7,22.5,28.1,20,25,20z"/>
</svg>
